<svg width="25" height="23" viewBox="0 0 25 23" fill="none" xmlns="http://www.w3.org/2000/svg">
<path d="M19.8837 0H9.51395C6.87355 0 4.69302 2.01072 4.42502 4.582C1.93081 4.92017 0 7.06494 0 9.6545V17.6364C0 19.0043 0.532952 20.29 1.49836 21.2557C2.46376 22.2215 3.74893 22.7546 5.11634 22.7546H19.8837C22.7037 22.7546 25 20.4575 25 17.6364V14.5076C25 14.0019 24.5919 13.5937 24.0864 13.5937C23.5808 13.5937 23.1727 14.0019 23.1727 14.5076V17.6364C23.1727 19.4522 21.6987 20.9267 19.8837 20.9267H5.11634C4.23925 20.9267 3.41089 20.5855 2.78962 19.964C2.16835 19.3425 1.82726 18.5169 1.82726 17.6364V9.6545C1.82726 8.08857 2.92971 6.77551 4.39761 6.44649V17.3348C4.39761 17.8406 4.8057 18.2488 5.31124 18.2488C5.81679 18.2488 6.22488 17.8406 6.22488 17.3348V5.11819C6.22488 3.30245 7.69887 1.82793 9.51395 1.82793H19.8837C21.6987 1.82793 23.1727 3.30245 23.1727 5.11819V9.71543C23.1727 10.2212 23.5808 10.6294 24.0864 10.6294C24.5919 10.6294 25 10.2212 25 9.71543V5.11819C25 2.29709 22.7037 0 19.8837 0Z" fill="currentColor"/>
<path d="M20.505 7.78689C20.505 7.28116 20.0969 6.87292 19.5914 6.87292H10.117C9.61146 6.87292 9.20337 7.28116 9.20337 7.78689C9.20337 8.29261 9.61146 8.70085 10.117 8.70085H19.5914C20.0969 8.70085 20.505 8.29261 20.505 7.78689Z" fill="currentColor"/>
<path d="M17.4596 11.7749C17.4596 11.2692 17.0515 10.861 16.5459 10.861H10.117C9.61146 10.861 9.20337 11.2692 9.20337 11.7749C9.20337 12.2807 9.61146 12.6889 10.117 12.6889H16.5459C17.0515 12.6889 17.4596 12.2807 17.4596 11.7749Z" fill="currentColor"/>
<path d="M10.117 15.0986C9.61146 15.0986 9.20337 15.5069 9.20337 16.0126C9.20337 16.5183 9.61146 16.9266 10.117 16.9266H13.5888C14.0943 16.9266 14.5024 16.5183 14.5024 16.0126C14.5024 15.5069 14.0943 15.0986 13.5888 15.0986H10.117Z" fill="currentColor"/>
</svg>
