<svg width="26" height="24" viewBox="0 0 26 24" fill="none" xmlns="http://www.w3.org/2000/svg">
<path d="M17.0617 17.9691H8.94565C8.45589 17.9691 8.05845 18.3665 8.05845 18.8563C8.05845 19.3461 8.45589 19.7435 8.94565 19.7435H17.0617C17.5515 19.7435 17.9489 19.3461 17.9489 18.8563C17.9489 18.3665 17.5515 17.9691 17.0617 17.9691Z" fill="currentColor" stroke="currentColor" stroke-width="0.2"/>
<path d="M23.2804 11.3466L23.2804 11.3465C23.4513 10.5821 23.1545 9.78425 22.5276 9.31332L14.2006 3.06927L14.2006 3.06927C13.8471 2.80411 13.4243 2.67205 13.0011 2.67205C12.5781 2.67205 12.1553 2.80552 11.8015 3.06931C11.8014 3.06935 11.8014 3.06939 11.8013 3.06943L3.47457 9.31332L23.2804 11.3466ZM23.2804 11.3466L21.2998 20.2592C21.0943 21.1818 20.2925 21.8247 19.3475 21.8247H6.65621C5.71127 21.8247 4.90945 21.1803 4.70394 20.2592L2.72335 11.3466L2.72332 11.3465M23.2804 11.3466L2.72332 11.3465M2.72332 11.3465C2.55245 10.582 2.84776 9.78422 3.4745 9.31337L2.72332 11.3465ZM2.40987 7.89384L2.40986 7.89384C1.22604 8.78171 0.66807 10.2872 0.989915 11.7316C0.989919 11.7316 0.989924 11.7316 0.989928 11.7317L2.97052 20.6443C3.35696 22.3841 4.87275 23.6007 6.65464 23.6007H19.3459C21.1278 23.6007 22.6436 22.3857 23.0301 20.6443L25.0107 11.7316L25.0107 11.7316C25.3309 10.2874 24.7763 8.78183 23.5923 7.89384L23.5323 7.97384L23.5923 7.89384L15.2653 1.64974C13.9324 0.650087 12.0698 0.650087 10.7369 1.64974L2.40987 7.89384Z" fill="currentColor" stroke="#8F8F8F" stroke-width="0.2"/>
</svg>
